<svg xmlns="http://www.w3.org/2000/svg" data-name="Layer 1" viewBox="0 0 1000 1000" x="0px" y="0px"><title>494-Water Bucket</title><path d="M602.08,602H397.92a57.06,57.06,0,0,1-57-57V520.93a57.06,57.06,0,0,1,57-57H602.08a57.06,57.06,0,0,1,57,57V545A57.06,57.06,0,0,1,602.08,602ZM397.92,495.93a25,25,0,0,0-25,25V545a25,25,0,0,0,25,25H602.08a25,25,0,0,0,25-25V520.93a25,25,0,0,0-25-25Z"/><path d="M811.84,262.17H188.16a55.54,55.54,0,0,1-55.47-55.47V177a55.54,55.54,0,0,1,55.47-55.47H811.84A55.54,55.54,0,0,1,867.31,177V206.7A55.54,55.54,0,0,1,811.84,262.17ZM188.16,153.5A23.5,23.5,0,0,0,164.69,177V206.7a23.5,23.5,0,0,0,23.47,23.47H811.84a23.5,23.5,0,0,0,23.47-23.47V177a23.5,23.5,0,0,0-23.47-23.47Z"/><path d="M691,878.5H309c-58.4,0-105.94-51.35-106.17-114.57l-29-516.86,32-1.8,29,517.75v.45c0,45.78,33.27,83,74.17,83H691c40.9,0,74.17-37.25,74.17-83l0-.89,29-517.31,31.95,1.8-29,516.86C796.92,827.15,749.38,878.5,691,878.5Z"/><path d="M356.93,549.91a16.06,16.06,0,0,1-3.74-.45A347.8,347.8,0,0,1,189.81,458,356.84,356.84,0,0,1,84,204.08a28.76,28.76,0,0,1,8.25-20.22,28.37,28.37,0,0,1,20.32-8.55h36.12a16,16,0,0,1,0,32H116a323,323,0,0,0,96.31,228,315.78,315.78,0,0,0,148.32,83.07,16,16,0,0,1-3.72,31.57Z"/><path d="M643.07,549.91a16,16,0,0,1-3.72-31.57,315.78,315.78,0,0,0,148.32-83.07q1.53-1.51,3-3l.16-.15A323.43,323.43,0,0,0,884,207.31H851.31a16,16,0,0,1,0-32h36.12A28.71,28.71,0,0,1,916,204.08a356.75,356.75,0,0,1-102.4,250.5l-.21.22c-1.06,1.07-2.12,2.13-3.2,3.2a347.8,347.8,0,0,1-163.38,91.46A16.06,16.06,0,0,1,643.07,549.91Zm244.36-342.6h0Z"/></svg>